<svg width="69" height="69" viewBox="0 0 69 69" fill="none" xmlns="http://www.w3.org/2000/svg">
<g filter="url(#filter0_f_10_4)">
<rect x="4" y="4" width="61" height="61" rx="12" fill="#A50000"/>
</g>
<path d="M16.4084 32.7464C16.3686 32.3454 16.1979 32.0339 15.8963 31.8118C15.5947 31.5897 15.1854 31.4787 14.6683 31.4787C14.317 31.4787 14.0204 31.5284 13.7784 31.6278C13.5365 31.724 13.3509 31.8582 13.2216 32.0305C13.0956 32.2029 13.0327 32.3984 13.0327 32.6172C13.026 32.7995 13.0642 32.9586 13.147 33.0945C13.2332 33.2304 13.3509 33.348 13.5 33.4474C13.6491 33.5436 13.8215 33.6281 14.017 33.701C14.2126 33.7706 14.4214 33.8303 14.6435 33.88L15.5582 34.0987C16.0024 34.1982 16.41 34.3307 16.7812 34.4964C17.1525 34.6622 17.474 34.866 17.7457 35.108C18.0175 35.3499 18.228 35.6349 18.3771 35.9631C18.5296 36.2912 18.6075 36.6674 18.6108 37.0916C18.6075 37.7147 18.4484 38.255 18.1335 38.7124C17.822 39.1664 17.3712 39.5194 16.7812 39.7713C16.1946 40.0199 15.487 40.1442 14.6584 40.1442C13.8364 40.1442 13.1205 40.0182 12.5107 39.7663C11.9041 39.5144 11.4302 39.1416 11.0888 38.6477C10.7507 38.1506 10.5734 37.5357 10.5568 36.8033H12.6399C12.6631 37.1446 12.7609 37.4297 12.9332 37.6584C13.1089 37.8838 13.3426 38.0545 13.6342 38.1705C13.9292 38.2831 14.2623 38.3395 14.6335 38.3395C14.9981 38.3395 15.3146 38.2865 15.5831 38.1804C15.8549 38.0743 16.0653 37.9268 16.2145 37.7379C16.3636 37.549 16.4382 37.3319 16.4382 37.0866C16.4382 36.858 16.3703 36.6657 16.2344 36.5099C16.1018 36.3542 15.9063 36.2216 15.6477 36.1122C15.3925 36.0028 15.0793 35.9034 14.7081 35.8139L13.5994 35.5355C12.741 35.3267 12.0632 35.0002 11.5661 34.5561C11.0689 34.112 10.822 33.5137 10.8253 32.7614C10.822 32.1449 10.986 31.6063 11.3175 31.1456C11.6522 30.6849 12.1113 30.3253 12.6946 30.0668C13.2779 29.8082 13.9408 29.679 14.6832 29.679C15.4389 29.679 16.0985 29.8082 16.6619 30.0668C17.2287 30.3253 17.6695 30.6849 17.9844 31.1456C18.2992 31.6063 18.4616 32.1399 18.4716 32.7464H16.4084ZM20.0588 40V29.8182H22.2115V34.0192H26.5815V29.8182H28.7292V40H26.5815V35.794H22.2115V40H20.0588ZM39.8606 34.9091C39.8606 36.0194 39.6502 36.964 39.2292 37.7429C38.8116 38.5218 38.2415 39.1167 37.519 39.5277C36.7998 39.9354 35.9911 40.1392 35.0929 40.1392C34.188 40.1392 33.376 39.9337 32.6568 39.5227C31.9376 39.1117 31.3691 38.5168 30.9515 37.7379C30.5339 36.959 30.3251 36.0161 30.3251 34.9091C30.3251 33.7988 30.5339 32.8542 30.9515 32.0753C31.3691 31.2964 31.9376 30.7031 32.6568 30.2955C33.376 29.8845 34.188 29.679 35.0929 29.679C35.9911 29.679 36.7998 29.8845 37.519 30.2955C38.2415 30.7031 38.8116 31.2964 39.2292 32.0753C39.6502 32.8542 39.8606 33.7988 39.8606 34.9091ZM37.6781 34.9091C37.6781 34.1899 37.5704 33.5833 37.3549 33.0895C37.1428 32.5956 36.8429 32.2211 36.4551 31.9659C36.0673 31.7107 35.6132 31.5831 35.0929 31.5831C34.5725 31.5831 34.1184 31.7107 33.7306 31.9659C33.3429 32.2211 33.0413 32.5956 32.8258 33.0895C32.6137 33.5833 32.5076 34.1899 32.5076 34.9091C32.5076 35.6283 32.6137 36.2348 32.8258 36.7287C33.0413 37.2225 33.3429 37.5971 33.7306 37.8523C34.1184 38.1075 34.5725 38.2351 35.0929 38.2351C35.6132 38.2351 36.0673 38.1075 36.4551 37.8523C36.8429 37.5971 37.1428 37.2225 37.3549 36.7287C37.5704 36.2348 37.6781 35.6283 37.6781 34.9091ZM41.4553 40V29.8182H45.4723C46.2446 29.8182 46.9025 29.9657 47.446 30.2607C47.9896 30.5523 48.4039 30.9583 48.6889 31.4787C48.9773 31.9957 49.1214 32.5923 49.1214 33.2685C49.1214 33.9446 48.9756 34.5412 48.6839 35.0582C48.3923 35.5753 47.9697 35.978 47.4162 36.2663C46.866 36.5547 46.1998 36.6989 45.4176 36.6989H42.8572V34.9737H45.0696C45.4839 34.9737 45.8253 34.9025 46.0938 34.7599C46.3655 34.6141 46.5677 34.4136 46.7003 34.1584C46.8362 33.8999 46.9041 33.6032 46.9041 33.2685C46.9041 32.9304 46.8362 32.6354 46.7003 32.3835C46.5677 32.1283 46.3655 31.9311 46.0938 31.7919C45.822 31.6494 45.4773 31.5781 45.0597 31.5781H43.608V40H41.4553ZM50.5197 40V29.8182H57.3805V31.593H52.6724V34.0192H57.0275V35.794H52.6724V38.2251H57.4004V40H50.5197Z" fill="white"/>
<defs>
<filter id="filter0_f_10_4" x="0" y="0" width="69" height="69" filterUnits="userSpaceOnUse" color-interpolation-filters="sRGB">
<feFlood flood-opacity="0" result="BackgroundImageFix"/>
<feBlend mode="normal" in="SourceGraphic" in2="BackgroundImageFix" result="shape"/>
<feGaussianBlur stdDeviation="2" result="effect1_foregroundBlur_10_4"/>
</filter>
</defs>
</svg>
